<mxfile host="app.diagrams.net" modified="2023-05-30T00:49:54.154Z" agent="Mozilla/5.0 (Windows NT 10.0; Win64; x64) AppleWebKit/537.36 (KHTML, like Gecko) Chrome/113.0.0.0 Safari/537.36" etag="E_StRNr1wXg6hlOjLDX8" version="21.3.4" type="device">
  <diagram name="페이지-1" id="QWvscrBubcZ2G9V022dx">
    <mxGraphModel dx="1434" dy="788" grid="1" gridSize="10" guides="1" tooltips="1" connect="1" arrows="1" fold="1" page="1" pageScale="1" pageWidth="4681" pageHeight="3300" math="0" shadow="0">
      <root>
        <mxCell id="0" />
        <mxCell id="1" parent="0" />
        <mxCell id="-KbJmPiFZR_2Cxc-aUOs-7" style="rounded=0;orthogonalLoop=1;jettySize=auto;html=1;entryX=0.5;entryY=0;entryDx=0;entryDy=0;exitX=0.5;exitY=1;exitDx=0;exitDy=0;" edge="1" parent="1" source="-KbJmPiFZR_2Cxc-aUOs-1" target="-KbJmPiFZR_2Cxc-aUOs-2">
          <mxGeometry relative="1" as="geometry" />
        </mxCell>
        <mxCell id="-KbJmPiFZR_2Cxc-aUOs-8" style="rounded=0;orthogonalLoop=1;jettySize=auto;html=1;entryX=0.5;entryY=0;entryDx=0;entryDy=0;exitX=0.5;exitY=1;exitDx=0;exitDy=0;" edge="1" parent="1" source="-KbJmPiFZR_2Cxc-aUOs-1" target="-KbJmPiFZR_2Cxc-aUOs-3">
          <mxGeometry relative="1" as="geometry" />
        </mxCell>
        <mxCell id="-KbJmPiFZR_2Cxc-aUOs-9" style="rounded=0;orthogonalLoop=1;jettySize=auto;html=1;entryX=0.5;entryY=0;entryDx=0;entryDy=0;exitX=0.5;exitY=1;exitDx=0;exitDy=0;" edge="1" parent="1" source="-KbJmPiFZR_2Cxc-aUOs-1" target="-KbJmPiFZR_2Cxc-aUOs-4">
          <mxGeometry relative="1" as="geometry" />
        </mxCell>
        <mxCell id="-KbJmPiFZR_2Cxc-aUOs-10" style="rounded=0;orthogonalLoop=1;jettySize=auto;html=1;entryX=0.5;entryY=0;entryDx=0;entryDy=0;exitX=0.5;exitY=1;exitDx=0;exitDy=0;" edge="1" parent="1" source="-KbJmPiFZR_2Cxc-aUOs-1" target="-KbJmPiFZR_2Cxc-aUOs-5">
          <mxGeometry relative="1" as="geometry" />
        </mxCell>
        <mxCell id="-KbJmPiFZR_2Cxc-aUOs-11" style="rounded=0;orthogonalLoop=1;jettySize=auto;html=1;entryX=0.5;entryY=0;entryDx=0;entryDy=0;exitX=0.5;exitY=1;exitDx=0;exitDy=0;" edge="1" parent="1" source="-KbJmPiFZR_2Cxc-aUOs-1" target="-KbJmPiFZR_2Cxc-aUOs-6">
          <mxGeometry relative="1" as="geometry" />
        </mxCell>
        <mxCell id="-KbJmPiFZR_2Cxc-aUOs-1" value="상품정보" style="rounded=1;arcSize=10;whiteSpace=wrap;html=1;align=center;" vertex="1" parent="1">
          <mxGeometry x="585" y="410" width="130" height="60" as="geometry" />
        </mxCell>
        <mxCell id="-KbJmPiFZR_2Cxc-aUOs-2" value="상품코드" style="ellipse;whiteSpace=wrap;html=1;align=center;fontStyle=4;" vertex="1" parent="1">
          <mxGeometry x="340" y="550" width="100" height="40" as="geometry" />
        </mxCell>
        <mxCell id="-KbJmPiFZR_2Cxc-aUOs-3" value="상품명" style="ellipse;whiteSpace=wrap;html=1;align=center;" vertex="1" parent="1">
          <mxGeometry x="470" y="550" width="100" height="40" as="geometry" />
        </mxCell>
        <mxCell id="-KbJmPiFZR_2Cxc-aUOs-4" value="품목" style="ellipse;whiteSpace=wrap;html=1;align=center;" vertex="1" parent="1">
          <mxGeometry x="600" y="550" width="100" height="40" as="geometry" />
        </mxCell>
        <mxCell id="-KbJmPiFZR_2Cxc-aUOs-5" value="매입단가" style="ellipse;whiteSpace=wrap;html=1;align=center;" vertex="1" parent="1">
          <mxGeometry x="730" y="550" width="100" height="40" as="geometry" />
        </mxCell>
        <mxCell id="-KbJmPiFZR_2Cxc-aUOs-6" value="매출단가" style="ellipse;whiteSpace=wrap;html=1;align=center;" vertex="1" parent="1">
          <mxGeometry x="860" y="550" width="100" height="40" as="geometry" />
        </mxCell>
        <mxCell id="-KbJmPiFZR_2Cxc-aUOs-18" style="rounded=0;orthogonalLoop=1;jettySize=auto;html=1;entryX=0.5;entryY=0;entryDx=0;entryDy=0;exitX=0.5;exitY=1;exitDx=0;exitDy=0;" edge="1" parent="1" source="-KbJmPiFZR_2Cxc-aUOs-13" target="-KbJmPiFZR_2Cxc-aUOs-14">
          <mxGeometry relative="1" as="geometry" />
        </mxCell>
        <mxCell id="-KbJmPiFZR_2Cxc-aUOs-19" style="edgeStyle=none;shape=connector;rounded=0;orthogonalLoop=1;jettySize=auto;html=1;entryX=0.5;entryY=0;entryDx=0;entryDy=0;labelBackgroundColor=default;strokeColor=default;fontFamily=Helvetica;fontSize=11;fontColor=default;endArrow=classic;exitX=0.5;exitY=1;exitDx=0;exitDy=0;" edge="1" parent="1" source="-KbJmPiFZR_2Cxc-aUOs-13" target="-KbJmPiFZR_2Cxc-aUOs-15">
          <mxGeometry relative="1" as="geometry" />
        </mxCell>
        <mxCell id="-KbJmPiFZR_2Cxc-aUOs-20" style="edgeStyle=none;shape=connector;rounded=0;orthogonalLoop=1;jettySize=auto;html=1;entryX=0.5;entryY=0;entryDx=0;entryDy=0;labelBackgroundColor=default;strokeColor=default;fontFamily=Helvetica;fontSize=11;fontColor=default;endArrow=classic;exitX=0.5;exitY=1;exitDx=0;exitDy=0;" edge="1" parent="1" source="-KbJmPiFZR_2Cxc-aUOs-13" target="-KbJmPiFZR_2Cxc-aUOs-16">
          <mxGeometry relative="1" as="geometry" />
        </mxCell>
        <mxCell id="-KbJmPiFZR_2Cxc-aUOs-21" style="edgeStyle=none;shape=connector;rounded=0;orthogonalLoop=1;jettySize=auto;html=1;entryX=0.5;entryY=0;entryDx=0;entryDy=0;labelBackgroundColor=default;strokeColor=default;fontFamily=Helvetica;fontSize=11;fontColor=default;endArrow=classic;exitX=0.5;exitY=1;exitDx=0;exitDy=0;" edge="1" parent="1" source="-KbJmPiFZR_2Cxc-aUOs-13" target="-KbJmPiFZR_2Cxc-aUOs-17">
          <mxGeometry relative="1" as="geometry" />
        </mxCell>
        <mxCell id="-KbJmPiFZR_2Cxc-aUOs-13" value="고객정보" style="rounded=1;arcSize=10;whiteSpace=wrap;html=1;align=center;" vertex="1" parent="1">
          <mxGeometry x="1250" y="420" width="130" height="60" as="geometry" />
        </mxCell>
        <mxCell id="-KbJmPiFZR_2Cxc-aUOs-14" value="고객ID" style="ellipse;whiteSpace=wrap;html=1;align=center;fontStyle=4;" vertex="1" parent="1">
          <mxGeometry x="1080" y="550" width="100" height="40" as="geometry" />
        </mxCell>
        <mxCell id="-KbJmPiFZR_2Cxc-aUOs-15" value="고객이름" style="ellipse;whiteSpace=wrap;html=1;align=center;" vertex="1" parent="1">
          <mxGeometry x="1210" y="550" width="100" height="40" as="geometry" />
        </mxCell>
        <mxCell id="-KbJmPiFZR_2Cxc-aUOs-16" value="전화번호" style="ellipse;whiteSpace=wrap;html=1;align=center;" vertex="1" parent="1">
          <mxGeometry x="1340" y="550" width="100" height="40" as="geometry" />
        </mxCell>
        <mxCell id="-KbJmPiFZR_2Cxc-aUOs-17" value="주소" style="ellipse;whiteSpace=wrap;html=1;align=center;" vertex="1" parent="1">
          <mxGeometry x="1470" y="550" width="100" height="40" as="geometry" />
        </mxCell>
        <mxCell id="-KbJmPiFZR_2Cxc-aUOs-22" style="rounded=0;orthogonalLoop=1;jettySize=auto;html=1;entryX=0.5;entryY=0;entryDx=0;entryDy=0;exitX=0.5;exitY=1;exitDx=0;exitDy=0;" edge="1" parent="1" source="-KbJmPiFZR_2Cxc-aUOs-27" target="-KbJmPiFZR_2Cxc-aUOs-28">
          <mxGeometry relative="1" as="geometry" />
        </mxCell>
        <mxCell id="-KbJmPiFZR_2Cxc-aUOs-23" style="rounded=0;orthogonalLoop=1;jettySize=auto;html=1;entryX=0.5;entryY=0;entryDx=0;entryDy=0;exitX=0.5;exitY=1;exitDx=0;exitDy=0;" edge="1" parent="1" source="-KbJmPiFZR_2Cxc-aUOs-27" target="-KbJmPiFZR_2Cxc-aUOs-29">
          <mxGeometry relative="1" as="geometry" />
        </mxCell>
        <mxCell id="-KbJmPiFZR_2Cxc-aUOs-24" style="rounded=0;orthogonalLoop=1;jettySize=auto;html=1;entryX=0.5;entryY=0;entryDx=0;entryDy=0;exitX=0.5;exitY=1;exitDx=0;exitDy=0;" edge="1" parent="1" source="-KbJmPiFZR_2Cxc-aUOs-27" target="-KbJmPiFZR_2Cxc-aUOs-30">
          <mxGeometry relative="1" as="geometry" />
        </mxCell>
        <mxCell id="-KbJmPiFZR_2Cxc-aUOs-25" style="rounded=0;orthogonalLoop=1;jettySize=auto;html=1;entryX=0.5;entryY=0;entryDx=0;entryDy=0;exitX=0.5;exitY=1;exitDx=0;exitDy=0;" edge="1" parent="1" source="-KbJmPiFZR_2Cxc-aUOs-27" target="-KbJmPiFZR_2Cxc-aUOs-31">
          <mxGeometry relative="1" as="geometry" />
        </mxCell>
        <mxCell id="-KbJmPiFZR_2Cxc-aUOs-26" style="rounded=0;orthogonalLoop=1;jettySize=auto;html=1;entryX=0.5;entryY=0;entryDx=0;entryDy=0;exitX=0.5;exitY=1;exitDx=0;exitDy=0;" edge="1" parent="1" source="-KbJmPiFZR_2Cxc-aUOs-27" target="-KbJmPiFZR_2Cxc-aUOs-32">
          <mxGeometry relative="1" as="geometry" />
        </mxCell>
        <mxCell id="-KbJmPiFZR_2Cxc-aUOs-35" style="edgeStyle=none;shape=connector;rounded=0;orthogonalLoop=1;jettySize=auto;html=1;entryX=0.5;entryY=0;entryDx=0;entryDy=0;labelBackgroundColor=default;strokeColor=default;fontFamily=Helvetica;fontSize=11;fontColor=default;endArrow=classic;exitX=0.5;exitY=1;exitDx=0;exitDy=0;" edge="1" parent="1" source="-KbJmPiFZR_2Cxc-aUOs-27" target="-KbJmPiFZR_2Cxc-aUOs-34">
          <mxGeometry relative="1" as="geometry" />
        </mxCell>
        <mxCell id="-KbJmPiFZR_2Cxc-aUOs-36" style="edgeStyle=none;shape=connector;rounded=0;orthogonalLoop=1;jettySize=auto;html=1;entryX=0.5;entryY=0;entryDx=0;entryDy=0;labelBackgroundColor=default;strokeColor=default;fontFamily=Helvetica;fontSize=11;fontColor=default;endArrow=classic;exitX=0.5;exitY=1;exitDx=0;exitDy=0;" edge="1" parent="1" source="-KbJmPiFZR_2Cxc-aUOs-27" target="-KbJmPiFZR_2Cxc-aUOs-33">
          <mxGeometry relative="1" as="geometry" />
        </mxCell>
        <mxCell id="-KbJmPiFZR_2Cxc-aUOs-27" value="판매내역" style="rounded=1;arcSize=10;whiteSpace=wrap;html=1;align=center;" vertex="1" parent="1">
          <mxGeometry x="1060" y="130" width="130" height="60" as="geometry" />
        </mxCell>
        <mxCell id="-KbJmPiFZR_2Cxc-aUOs-28" value="SEQ" style="ellipse;whiteSpace=wrap;html=1;align=center;fontStyle=4;" vertex="1" parent="1">
          <mxGeometry x="670" y="310" width="100" height="40" as="geometry" />
        </mxCell>
        <mxCell id="-KbJmPiFZR_2Cxc-aUOs-29" value="거래일자" style="ellipse;whiteSpace=wrap;html=1;align=center;" vertex="1" parent="1">
          <mxGeometry x="800" y="310" width="100" height="40" as="geometry" />
        </mxCell>
        <mxCell id="-KbJmPiFZR_2Cxc-aUOs-30" value="거래시각" style="ellipse;whiteSpace=wrap;html=1;align=center;" vertex="1" parent="1">
          <mxGeometry x="930" y="310" width="100" height="40" as="geometry" />
        </mxCell>
        <mxCell id="-KbJmPiFZR_2Cxc-aUOs-31" value="고객ID" style="ellipse;whiteSpace=wrap;html=1;align=center;" vertex="1" parent="1">
          <mxGeometry x="1060" y="310" width="100" height="40" as="geometry" />
        </mxCell>
        <mxCell id="-KbJmPiFZR_2Cxc-aUOs-32" value="상품코드" style="ellipse;whiteSpace=wrap;html=1;align=center;" vertex="1" parent="1">
          <mxGeometry x="1190" y="310" width="100" height="40" as="geometry" />
        </mxCell>
        <mxCell id="-KbJmPiFZR_2Cxc-aUOs-33" value="판매단가" style="ellipse;whiteSpace=wrap;html=1;align=center;" vertex="1" parent="1">
          <mxGeometry x="1450" y="310" width="100" height="40" as="geometry" />
        </mxCell>
        <mxCell id="-KbJmPiFZR_2Cxc-aUOs-34" value="수량" style="ellipse;whiteSpace=wrap;html=1;align=center;" vertex="1" parent="1">
          <mxGeometry x="1320" y="310" width="100" height="40" as="geometry" />
        </mxCell>
      </root>
    </mxGraphModel>
  </diagram>
</mxfile>
